<?xml version="1.0" encoding="utf-8"?>
<!DOCTYPE svg PUBLIC "-//W3C//DTD SVG 1.0//EN" "http://www.w3.org/TR/2001/REC-SVG-20010904/DTD/svg10.dtd">
<svg version="1.0" xmlns="http://www.w3.org/2000/svg" width="1408px" height="786px" viewBox="0 0 1408 786" preserveAspectRatio="xMidYMid meet">
 <g fill="#fdfbfa">
  <path d="M0 392.9 l0 -392.9 704 0 704 0 0 392.9 0 392.9 -704 0 -704 0 0 -392.9z m591.2 0.3 l0.2 -91.4 -89.5 0 -89.5 0 0 91.1 0 91.1 27.4 0.3 c15 0.1 55.2 0.2 89.2 0.2 l61.9 0 0.3 -91.3z m202.6 0 l0.2 -91.4 -90 0 -90 0 0 90.9 c0 50 0.3 91.3 0.7 91.6 0.3 0.4 40.7 0.6 89.7 0.5 l89.1 -0.3 0.3 -91.3z m201.8 -0.3 l0 -91.1 -89 0 -89 0 0 91.1 0 91.1 89 0 89 0 0 -91.1z"/>
  <path d="M485.4 457 c-24 -5.5 -41 -25.7 -44.5 -53 -5 -38.8 15.6 -70.5 49.1 -75.5 11.1 -1.7 26.2 -0.8 35.2 2 5.2 1.6 7.4 1.8 8.4 1 0.8 -0.6 4.1 -1 7.9 -0.8 l6.4 0.3 0.3 23.3 0.2 23.3 -6.8 -0.3 -6.8 -0.3 -2.3 -6.2 c-3.3 -8.9 -7.1 -14.9 -12.4 -19.6 -9.3 -8.2 -21.6 -9.5 -28.8 -3.2 -1.1 1.1 -2.5 1.9 -2.9 1.9 -1.7 0 -8.5 6.7 -11.7 11.7 -10 15.6 -10.5 41.3 -1 59 6.5 12.4 18.4 20.4 30 20.4 6.7 -0.1 12.8 -1.8 15.9 -4.6 2.4 -2 3.5 -9.9 2.6 -16.9 -0.8 -6 -4.2 -9.9 -9.6 -10.7 -7.3 -1.2 -8.2 -1.5 -8.8 -3.7 -0.4 -1.1 -0.4 -4.3 0 -7.2 l0.7 -5 28.5 0 28.5 0 0 7.1 c0 7.7 0.2 7.4 -6.8 8.8 -6.4 1.2 -7.1 3 -7.4 21.5 l-0.3 16.8 -7.9 3.3 c-14 5.9 -20 7.2 -35.5 7.7 -9.9 0.2 -16.3 -0.1 -20.6 -1z"/>
  <path d="M654.6 455.1 c-1.5 -1.1 -1.8 -2.6 -1.5 -7.5 l0.3 -6.1 4.9 -0.5 c3.5 -0.4 5.6 -1.4 7.7 -3.4 l2.8 -2.8 0.3 -38.7 c0.1 -21.2 -0.1 -40.4 -0.5 -42.6 -1 -4.9 -4.8 -7.9 -10.7 -8.7 l-4.4 -0.6 0 -7.2 0 -7.2 26.6 -0.3 c14.6 -0.1 27.6 0 29 0.3 2.1 0.5 2.4 1 2 7.4 l-0.3 6.8 -6 1.2 c-6.4 1.3 -8.4 3 -9.3 8.1 -0.3 1.7 -0.5 20.5 -0.3 41.6 0.3 36.2 0.4 38.7 2.3 40.7 1.8 1.9 3.1 2.1 15.1 2.1 l13.1 0 4 -3.6 c2.4 -2.1 6 -7.5 8.7 -12.7 2.6 -5 5.4 -9.4 6.3 -9.7 0.8 -0.3 4.2 -0.6 7.3 -0.6 l5.7 0 -0.6 9.5 c-1.4 19.4 -2.8 33.9 -3.4 34.4 -0.3 0.3 -22.3 0.7 -48.8 0.9 -39 0.2 -48.6 0.1 -50.1 -1z"/>
  <path d="M879.7 455.7 l-3.9 -0.4 0.3 -6.9 0.3 -6.8 4.1 -0.8 c2.3 -0.5 5.4 -1.3 7 -2 5.7 -2.3 5.8 -3.3 5.8 -45.7 0 -22.2 -0.4 -39.9 -1 -41.4 -1.3 -3.5 -5.5 -6 -11.2 -6.8 l-4.7 -0.5 0 -7.2 0 -7.2 30.2 0 30.2 0 0 7.2 0 7.2 -5.4 0.7 c-6.9 1 -9.2 2.3 -10.4 5.5 -0.6 1.5 -1 19.9 -1 43 l0 40.4 2.5 2.5 c1.3 1.3 3.8 2.8 5.4 3.1 9.3 1.9 9 1.6 9.3 7.5 0.6 9.8 1.8 9.4 -27.7 9.2 -14.2 -0.1 -27.5 -0.3 -29.7 -0.5z"/>
 </g>
 <g fill="#2957aa">
  <path d="M905.9 487.3 l-91.4 -0.2 0 -94.1 0 -94.1 92.1 0 92.1 0 0 94 c0 51.8 -0.3 94.2 -0.7 94.4 -0.5 0.2 -42 0.2 -92.1 0z m27.3 -36.1 c0.6 -1.1 1 -3.1 0.8 -4.3 -0.3 -2.1 -1.3 -2.7 -9.3 -4.3 -1.6 -0.3 -4.1 -1.7 -5.4 -3.1 l-2.5 -2.5 0 -43.5 c0 -25.1 0.4 -44.5 1 -46 1.2 -3.3 3.6 -4.5 10.4 -5.5 l5.4 -0.7 0 -4.1 0 -4.1 -27.1 0 -27.1 0 0 4.1 0 4.1 4.7 0.5 c5.6 0.7 9.8 3.3 11.2 6.8 0.6 1.5 1 20.4 1 44.5 0 45.8 -0.1 46.6 -5.8 48.8 -1.5 0.7 -4.7 1.5 -7 2 -3.8 0.7 -4.1 1 -4.4 4.5 -0.3 3.7 -0.2 3.8 3.6 4.2 2.1 0.2 14.1 0.4 26.6 0.5 22 0.2 22.8 0.1 23.8 -1.9z"/>
 </g>
 <g fill="#2e8f47">
  <path d="M611.6 487.4 c-0.4 -0.3 -0.7 -43 -0.7 -94.7 l0 -93.9 93.1 0 93.1 0 -0.2 94.4 -0.3 94.3 -92.2 0.3 c-50.7 0.1 -92.5 -0.1 -92.8 -0.5z m138.9 -35.2 c0.3 -0.3 1 -6.2 1.6 -13.3 0.5 -7 1.3 -15.3 1.6 -18.5 0.6 -5.8 0.6 -5.9 -1.9 -5.9 -4.6 0 -5.8 1.1 -10.5 10.3 -2.7 5.2 -6.3 10.5 -8.7 12.7 l-4 3.6 -16.2 0 c-15.2 0 -16.4 -0.1 -18.2 -2.1 -1.8 -2 -1.9 -4.5 -2.3 -43.8 -0.2 -22.8 0 -43 0.3 -44.7 0.9 -5.1 2.9 -6.8 9.3 -8.1 5.9 -1.1 6 -1.2 6.3 -4.9 0.3 -3.2 0 -3.8 -2 -4.3 -1.3 -0.3 -12.9 -0.4 -25.9 -0.3 l-23.5 0.3 0 4.1 c0 4.1 0 4.1 4.4 4.7 5.9 0.8 9.7 3.8 10.7 8.7 0.4 2.1 0.6 22.7 0.5 45.6 l-0.3 41.7 -2.8 2.8 c-2 1.9 -4.2 3 -7.7 3.4 -4.5 0.5 -4.9 0.7 -5.2 3.6 -0.7 5.8 -1 5.7 48.6 5.4 24.9 -0.2 45.4 -0.6 45.7 -0.9z"/>
 </g>
 <g fill="#5cb768">
  <path d="M436.7 487.4 l-27.4 -0.3 0 -94.1 0 -94.1 92.6 0 92.6 0 -0.2 94.4 -0.3 94.3 -65 0 c-35.7 0 -77.3 -0.1 -92.3 -0.2z m87.2 -34.9 c3.7 -1 10.2 -3.4 14.5 -5.2 l7.9 -3.3 0.3 -16.8 c0.3 -18.5 0.9 -20.3 7.4 -21.5 6.7 -1.3 6.8 -1.4 6.8 -5.7 l0 -4 -25.5 0 -25.5 0 -0.4 3.2 c-0.6 3.9 1.3 6 5.5 6 4.3 0 9.5 2.7 11.2 5.8 1 1.8 1.4 6.3 1.4 14.3 0 11.6 0 11.8 -2.9 14.2 -3.9 3.4 -10.1 4.9 -19.4 4.7 -6.5 0 -9.1 -0.6 -14.3 -3.1 -16.5 -7.8 -24.6 -24.1 -24.7 -49.8 -0.1 -15.2 1.9 -23.8 7.8 -32.8 3.2 -5 9.9 -11.7 11.7 -11.7 0.4 0 1.7 -0.8 2.9 -1.9 3.1 -2.8 8.3 -4.2 14.9 -4.2 14.9 0 25.8 9.1 32.3 27 2.1 5.9 2.4 6.2 5.9 6.5 l3.7 0.3 -0.2 -20.3 -0.3 -20.3 -3.8 -0.3 c-2.9 -0.2 -4.1 0.2 -5.3 2 -1.5 2.1 -1.8 2.1 -4.9 0.9 -24.3 -9.8 -45.8 -7.8 -64.6 6.1 -15.8 11.7 -25.2 36.3 -22.2 58.5 3.5 26.9 20.5 47 44.4 52.5 8.3 1.8 26.5 1.1 35.4 -1.4z"/>
  <path d="M611.4 432.3 c0 -29.8 0.1 -41.9 0.2 -26.8 0.2 15.1 0.2 39.5 0 54.2 -0.1 14.7 -0.2 2.5 -0.2 -27.4z"/>
  <path d="M796.5 469.2 c0 -5.6 0.1 -7.8 0.3 -4.8 0.2 3 0.2 7.6 0 10.2 -0.2 2.7 -0.3 0.2 -0.3 -5.4z"/>
 </g>
</svg>